<svg id="Camada_1" data-name="Camada 1" xmlns="http://www.w3.org/2000/svg" viewBox="0 0 873.79 427.45"><defs><style>.cls-1{fill:#b10a32;}.cls-2{fill:#8dc63f;}</style></defs><title>logo-sabor-e-delicia</title><path class="cls-1" d="M301.18,84.41c-3.29,0-5.48-1.27-7.86-3.83,3.29-2.38,5.3-7.49,5.3-12.6,0-8.41-5.3-17.36-17.53-17.36-12.79,0-19.73,9.87-19.73,22.11,0,35.43,57.9,21.18,57.9,70,0,29.41-21.19,40.36-42.56,40.36-18.81,0-38.72-8.58-38.72-29.4,0-12.06,6.76-26.67,19.91-26.67,5.3,0,8.95,2.38,11.87,10.41-11.69.55-14.61,9.87-14.61,16.08,0,13.15,13.15,19.54,22.65,19.54,11.14,0,19.36-8.77,19.36-24.84,0-40.73-53.52-24.84-53.52-67.22,0-24.47,17.72-36.89,36.72-36.89,8.4,0,31.78,2.37,31.78,25C312.14,78.75,307.75,84.41,301.18,84.41Z"/><path class="cls-1" d="M397.61,89.53v62.1c0,4.75.37,16.44,8.22,16.44,5.85,0,10.41-6.76,13.15-19.91h6.76c-5.48,30.5-17.35,33.79-25.39,33.79-11.14,0-15.89-8.22-17.71-17.35C379,174.09,370.4,182,358.89,182c-14.79,0-31.23-11.14-31.23-41.83,0-22.46,9.86-51.5,34.7-51.5,5.85,0,13.52,2.19,17,9.68V89.53Zm-18.26,58.63V106.52c-1.65-3.84-5.3-7.86-10.78-7.86-15.71,0-21.73,23.2-21.73,40.18,0,20.83,6,29.23,16.62,29.23C371,168.07,379.35,159.3,379.35,148.16Z"/><path class="cls-1" d="M419,55.56,437.24,53V96.29c4-4.2,9.5-7.13,17.35-7.13,13,0,30.51,7.86,30.51,39.46,0,27.76-13.34,53.33-40,53.33-15.16,0-26.3-8.4-26.3-33.79Zm30.68,43.1c-4.93,0-9.13,2.56-12.42,6.21v48c0,11.14,3.29,16.44,10.78,16.44,13.88,0,20.82-17.54,20.82-36.53C468.84,114,461.9,98.66,449.66,98.66Z"/><path class="cls-1" d="M557.24,117.47h1.1a35.41,35.41,0,0,0,25-11l2.74,4.93c-4.75,7.85-16.81,13.15-28,15,0,2.38.19,4.94.19,7.49,0,30-11.51,48-31.24,48C510.85,182,493,170.81,493,139.39c0-21.37,8.22-50.77,35.61-50.77C547.74,88.62,554.87,101.22,557.24,117.47Zm-8,13.89A35.73,35.73,0,0,0,549,127c-6.94-.36-9.86-2.92-9.86-9.13,0-5.66,2.56-7.67,7.3-7.85-2.92-8.41-7.67-11.33-13.15-11.33-15.16,0-20.64,22.1-20.64,40,0,23.75,9.5,29.41,17.72,29.41C543.18,168.07,549.2,154.55,549.2,131.36Z"/><path class="cls-1" d="M589.93,89.53v15.34c5.66-8.58,11.14-16.25,21.55-16.25,8.22,0,12.06,4.93,12.06,10.95,0,7.31-5.48,9.5-8.4,9.5-4.2,0-4.94-4.56-10.23-4.56-5.48,0-10.78,4.74-15,9.13v67.21H571.67V89.53Z"/><path class="cls-2" d="M767.55,165.92a7.15,7.15,0,0,1,.13,1.66c0,6.11-6.81,13-16.35,13.75-.49,24.58-11.51,39.48-31.2,39.48-19.93,0-27-15.16-27-28.78,0-13.37,6.81-22.42,16.72-26.62-7.8-5.09-11.14-12-11.14-19.23,0-11.2,8-23.43,24.39-23.43,9,0,18.94,3.69,18.94,16.17,0,6.5-2.73,10.45-6.81,10.45-2.11,0-4.33-1-6.56-3.44,2.35-1,5.07-4.33,5.07-9.17,0-6.5-5.07-9.17-9.9-9.17-8.92,0-13.87,8.79-13.87,17.83,0,4.07,1,16.55,13.87,19.86-10.9,2.55-17,12.23-17,24.46s6.19,21,19.56,21c16.22,0,20.8-13.12,21.29-29.42-3.09-.25-6.43-.76-9.16-.76-5.32,0-8.91,1.91-10.52,5.73l-.87-.13c.5-9,7.55-15.41,19.32-15.41,3.71,0,6.56.64,9.53.64,4.7,0,9.53-1.66,10.77-5.48Z"/><path class="cls-1" d="M432.7,242V347.61c4.56,3.47,8.95,4.75,12.78,4.75,18.82,0,25.76-30.87,25.76-57.36,0-45.11-12.24-63.56-44-63.56-22.1,0-41.28,14.07-41.28,37.81,0,14.06,7.12,18.81,10.05,20.82-14.8,0-23.93-6.21-23.93-22.28,0-22.65,24.84-42.92,57.72-42.92,46.57,0,63.19,34.52,63.19,69.95,0,34.52-14.79,69.41-35.07,69.41-7.3,0-15.52-3.29-25.2-10.6v8.22H413V244.78Z"/><path class="cls-1" d="M523.47,325.32c1.83,19.36,10.59,23.75,21,23.75,11.51,0,22.47-5.66,28.86-19.91h5.85C573,347.06,555.61,363,537,363c-16.81,0-33.06-11-33.06-42.19,0-20.46,8.58-51.14,34.88-51.14,12.06,0,24.29,4.38,24.29,23.74C563.1,310.35,548.13,322.58,523.47,325.32Zm27.94-33.79c0-9.13-3.28-13-9.13-13-12.78,0-19,21.73-19,39.63C540.45,315.46,551.41,305.23,551.41,291.53Z"/><path class="cls-1" d="M591.59,234v98.63c0,4.75.37,16.44,8.22,16.44,5.85,0,10.41-6.76,13.15-19.91h6.76c-5.48,30.5-17.35,33.79-25.39,33.79-16.8,0-21-14.61-21-26.49v-99.9Z"/><path class="cls-1" d="M631,270.53v62.1c0,4.75.37,16.44,8.22,16.44,5.85,0,10.41-6.76,13.15-19.91h6.76c-5.48,30.5-17.35,33.79-25.39,33.79-16.8,0-21-14.61-21-26.49V270.53Zm-4.93-45.66h15.53l-14.8,34.52h-10Z"/><path class="cls-1" d="M696.79,289c0-5.67-3.65-9.68-10-9.68-13.15,0-17.17,21.37-17.17,38.72,0,25.57,9.68,31.05,21.55,31.05,12.79,0,21.55-6.4,27.76-19.91h6.21c-5.84,17.9-22.1,33.79-40,33.79-16.8,0-34.88-11-34.88-42.56,0-20.27,6.21-50.77,33.79-50.77,15.34,0,23.56,7.67,23.56,21.91,0,6-2.37,10.78-7.12,10.78a8,8,0,0,1-6.76-3.84C695.7,296.83,696.79,292.45,696.79,289Z"/><path class="cls-1" d="M727.66,232a12.48,12.48,0,0,1,12.24,12.24,12.19,12.19,0,0,1-12.24,12,11.92,11.92,0,0,1-12-12A12.19,12.19,0,0,1,727.66,232Zm9.5,38.54v62.1c0,4.75.36,16.44,8.22,16.44,5.84,0,10.41-6.76,13.15-19.91h6.75C759.81,359.66,747.93,363,739.9,363c-16.81,0-21-14.61-21-26.49V270.53Z"/><path class="cls-1" d="M825.74,270.53v62.1c0,5.66.18,16.44,8.77,16.44a20.7,20.7,0,0,0,6-1.1,17.5,17.5,0,0,1,.37,3.29c0,7.31-6.58,11.69-13.7,11.69-7.49,0-14.25-4.93-16.44-17.17-3.65,9.5-12.23,17.17-23.92,17.17-14.62,0-31.05-11.69-31.05-41.28,0-22.83,9.86-52.05,34.33-52.05,6.4,0,13.88,2.19,17.36,9.68v-8.77Zm-18.26,58.63V287.52c-1.65-4-4.94-7.86-11.15-7.86-15.34,0-21.37,23.2-21.37,41.46,0,19.73,6.94,27.95,15.71,27.95C800,349.07,807.48,339.75,807.48,329.16Z"/><path class="cls-1" d="M57.34,316.31c-2.55-17.4,42.23-41.39,104.22-53.75.11-.14.21-.29.31-.43C89.75,274.79,37,298.4,40,318.32c2.81,19.15,56.14,28.67,125.23,24.1l0,0C105.46,344.82,59.8,333.08,57.34,316.31Z"/><path class="cls-1" d="M350.09,278.64c-2.91-19.83-60-29.33-132.62-23.57l-.13.22c63.93-4,113.91,8.07,116.49,25.64,2.48,16.92-39.85,40.1-99.25,52.73C303.39,320.76,352.92,298,350.09,278.64Z"/><path class="cls-1" d="M229.32,334.72c1.76-.35,3.53-.69,5.26-1.06-1.7.32-3.42.62-5.13.92Z"/><path class="cls-2" d="M313.76,279c-2.39-14.37-35.53-19.55-76.81-13,18.11,1.57,30.18,6.85,31.59,15.31,2.67,16-33.93,37.43-81.75,47.79-4.95,1.08-9.83,2-14.6,2.74,16.2,1.41,37.24-.15,59.82-5C279.83,316.47,316.43,295.07,313.76,279Z"/><path class="cls-2" d="M206,136.7s-33.82,22-21.22,55.33c0,0,27.28,49.26,16.67,70.1,0,0,28.8-33,11.37-62.71C212.83,199.42,190.47,170.81,206,136.7Z"/><path class="cls-1" d="M176.26,164.37s-33.82,22-21.22,55.32c0,0,27.28,49.27,16.67,70.11,0,0,28.81-33,11.37-62.72C183.08,227.08,160.72,198.47,176.26,164.37Z"/><path class="cls-1" d="M105.53,349.5s12.88,17.19,70.48,12.64c0,0,81.22-2,120.63-27.42C296.64,334.72,202.66,374.54,105.53,349.5Z"/></svg>